<svg width="59" height="60" viewBox="0 0 59 60" fill="none" xmlns="http://www.w3.org/2000/svg">
<circle cx="29.5534" cy="30.1107" r="29.4465" fill="white"/>
<path fill-rule="evenodd" clip-rule="evenodd" d="M20.1287 26.3706C21.9893 26.3706 23.4977 24.8358 23.4977 22.9426C23.4977 21.0493 21.9893 19.5145 20.1287 19.5145C18.2681 19.5145 16.7598 21.0493 16.7598 22.9426C16.7598 24.8358 18.2681 26.3706 20.1287 26.3706ZM20.1592 25.7709C21.6934 25.7709 22.9371 24.5008 22.9371 22.9339C22.9371 21.3671 21.6934 20.0969 20.1592 20.0969C18.625 20.0969 17.3813 21.3671 17.3813 22.9339C17.3813 24.5008 18.625 25.7709 20.1592 25.7709Z" fill="black"/>
<path fill-rule="evenodd" clip-rule="evenodd" d="M37.9189 24.9521C39.9427 24.9521 41.5834 23.2585 41.5834 21.1694C41.5834 19.0803 39.9427 17.3867 37.9189 17.3867C35.895 17.3867 34.2544 19.0803 34.2544 21.1694C34.2544 23.2585 35.895 24.9521 37.9189 24.9521ZM37.978 24.2429C39.6427 24.2429 40.9923 22.8933 40.9923 21.2285C40.9923 19.5638 39.6427 18.2142 37.978 18.2142C36.3132 18.2142 34.9636 19.5638 34.9636 21.2285C34.9636 22.8933 36.3132 24.2429 37.978 24.2429Z" fill="black"/>
<path d="M22.5521 22.8835C22.5521 24.2218 21.4672 25.3067 20.1289 25.3067C18.7905 25.3067 17.7056 24.2218 17.7056 22.8835C17.7056 21.5451 18.7905 20.4602 20.1289 20.4602C21.4672 20.4602 22.5521 21.5451 22.5521 22.8835Z" fill="black"/>
<path d="M40.4013 21.4649C40.4013 22.8033 39.3163 23.8882 37.978 23.8882C36.6396 23.8882 35.5547 22.8033 35.5547 21.4649C35.5547 20.1266 36.6396 19.0417 37.978 19.0417C39.3163 19.0417 40.4013 20.1266 40.4013 21.4649Z" fill="black"/>
<path fill-rule="evenodd" clip-rule="evenodd" d="M28.6969 26.289C28.3716 26.801 28.2096 27.4179 28.2254 27.7734C28.2341 27.969 28.0825 28.1347 27.8869 28.1434C27.6912 28.1521 27.5256 28.0005 27.5169 27.8049C27.4933 27.2738 27.7129 26.5151 28.0983 25.9087C28.4802 25.3076 29.1093 24.734 29.9503 24.8274C30.7214 24.9131 31.2727 25.3853 31.6688 25.87C31.8681 26.1139 32.036 26.3705 32.1781 26.5992C32.2281 26.6795 32.2735 26.7541 32.3156 26.8234C32.3987 26.9599 32.4692 27.0758 32.5371 27.1745C32.6481 27.3359 32.6072 27.5567 32.4458 27.6676C32.2844 27.7786 32.0636 27.7377 31.9526 27.5763C31.8735 27.4612 31.7858 27.3173 31.6961 27.1699C31.6562 27.1044 31.6159 27.0381 31.5757 26.9735C31.439 26.7536 31.29 26.5273 31.1196 26.3188C30.7764 25.8989 30.3775 25.5885 29.872 25.5324C29.4363 25.484 29.0257 25.7717 28.6969 26.289Z" fill="black"/>
<path d="M37.5084 12.5928C39.1162 12.6917 40.6665 13.4699 41.5607 14.5214C42.4151 15.5262 42.9692 16.7896 43.364 18.0012C43.6768 18.9612 43.9007 19.9274 44.0876 20.7337L44.0878 20.7347L44.088 20.7353L44.0889 20.7393C44.1299 20.9164 44.1692 21.0856 44.2072 21.2454C44.3055 21.4124 44.4443 21.6132 44.6248 21.8746C44.7376 22.0378 44.8668 22.2247 45.0126 22.4417C45.4047 23.0254 45.8712 23.7643 46.328 24.681C47.2434 26.5182 48.1097 29.0496 48.2917 32.4775C48.3608 33.7781 48.0824 34.7428 47.4566 35.3746C46.8355 36.0016 45.9885 36.182 45.1887 36.182C44.9305 36.182 44.6938 36.1487 44.4907 36.1059C45.4582 38.7856 45.5037 41.523 45.4 43.3003C45.3917 43.4424 45.3852 43.6085 45.3786 43.7777V43.7779C45.3674 44.0676 45.3558 44.3665 45.334 44.5701C45.2985 44.9008 45.1058 45.1374 44.9495 45.2931C44.8085 45.4335 44.6254 45.5758 44.4537 45.709L44.4536 45.7091L44.4001 45.7507C43.4187 46.5146 41.6699 47.2345 39.8693 47.2345C39.342 47.2345 38.8182 47.0479 38.3443 46.7823C37.8657 46.5141 37.4027 46.1459 36.9864 45.7335C36.3136 45.0672 35.7177 44.2401 35.365 43.4434C34.3641 43.7053 33.0395 44.1108 31.5677 44.5614L31.567 44.5616L31.5668 44.5616L31.5665 44.5617L31.5662 44.5618C30.3936 44.9208 29.1276 45.3083 27.8575 45.6746C26.6763 46.0153 25.6229 46.2147 24.7725 46.3056C24.1969 46.3671 23.6836 46.3825 23.2773 46.346C22.5996 47.4232 21.3614 48.4552 19.9132 48.8669C19.0909 49.1006 18.1877 49.1379 17.2793 48.8554C16.3695 48.5725 15.4925 47.9807 14.7058 47.0173C11.7349 43.3795 13.1032 39.2215 13.6881 37.4444C13.7189 37.3505 13.7476 37.2633 13.7734 37.1832C13.8277 37.0144 13.8443 36.8925 13.8485 36.8225C14.122 37.1929 14.4325 37.6011 14.7498 38.0038C14.1482 39.8664 13.1745 43.2735 15.6213 46.2696C16.2826 47.0793 16.972 47.5219 17.6303 47.7266C18.29 47.9317 18.9567 47.9099 19.5899 47.7299C20.0116 47.61 20.4124 47.4216 20.777 47.1902C21.4809 46.7866 22.2059 46.133 22.8905 45.2854C24.3554 45.4043 26.3841 45.0902 28.6162 44.3695L35.9442 42.2297C36.8963 44.2371 38.1855 45.6386 39.4393 45.9797C39.5844 46.0248 39.7175 46.0483 39.8369 46.0519C40.0108 46.0674 40.1831 46.0613 40.353 46.0321C41.7049 45.92 42.9742 45.3626 43.674 44.8179L43.7061 44.7929C43.9038 44.6391 44.0286 44.5419 44.1153 44.4556C44.139 44.432 44.1538 44.4148 44.1627 44.4038C44.1783 44.2383 44.1857 44.0369 44.1942 43.8081C44.2007 43.631 44.2079 43.4374 44.2199 43.2314C44.3272 41.393 44.2588 38.5784 43.1633 35.9526C43.0806 35.83 43.0322 35.6822 43.0322 35.5232C43.0322 35.2898 43.1363 35.0808 43.3005 34.9398C43.3587 34.8842 43.431 34.835 43.5207 34.7971C43.6899 34.7257 43.8495 34.7332 43.9426 34.7442C44.0405 34.7558 44.1347 34.7806 44.2059 34.801C44.2607 34.8166 44.3146 34.8331 44.3685 34.8495C44.6161 34.9248 44.8627 34.9999 45.1887 34.9999C45.8378 34.9999 46.3116 34.8508 46.6168 34.5427C46.9174 34.2392 47.1709 33.6629 47.1113 32.5402C46.9387 29.2893 46.1204 26.915 45.2699 25.2081C44.8437 24.3528 44.4069 23.66 44.0313 23.1009C43.9198 22.935 43.8087 22.7738 43.7028 22.6205L43.7026 22.6201L43.7023 22.6198L43.7018 22.619L43.7016 22.6187L43.7013 22.6183C43.469 22.2816 43.2624 21.9823 43.1345 21.7506C43.1089 21.7042 43.0896 21.6546 43.0773 21.603C43.029 21.4021 42.9803 21.1923 42.93 20.9753C42.7439 20.173 42.5352 19.2731 42.24 18.3674C41.8658 17.2189 41.3704 16.1224 40.6602 15.2872C39.989 14.4979 38.7465 13.8533 37.4359 13.7727C36.1571 13.694 34.8518 14.1513 33.9506 15.5168C33.4107 16.3348 33.132 17.111 32.9985 17.7842C32.8381 18.4647 32.748 19.2295 32.748 20.0378C32.748 20.2072 32.752 20.3747 32.7597 20.5399C31.6187 20.5936 30.3682 20.7314 29.0667 20.9596C27.6369 21.2102 26.302 21.5425 25.1324 21.9222C25.1284 21.9189 25.1244 21.9156 25.1206 21.9123L25.117 21.9092C24.6041 20.458 23.8742 19.2935 23.1123 18.6475C22.2102 17.622 21.0558 16.7981 19.6627 16.6752C18.7398 16.5938 17.2856 16.737 16.1462 17.5378C15.0565 18.3037 14.1422 19.7505 14.3928 22.5349C14.3944 22.5525 14.3952 22.5702 14.3952 22.5879C14.3952 22.9938 14.4753 23.5362 14.5478 23.9261C14.662 23.9673 14.7714 24.0154 14.8762 24.0694C14.3391 23.8024 13.6921 23.6792 12.9309 23.8079C13.059 23.7855 13.1891 23.7703 13.3208 23.7626C13.264 23.3965 13.2155 22.9773 13.2132 22.6151C12.9399 19.5045 13.9745 17.6193 15.4665 16.5707C16.9129 15.5541 18.6799 15.4018 19.7666 15.4977C21.6555 15.6643 23.1087 16.8103 24.1265 18.0136C24.9248 18.9573 25.4921 19.9782 25.8298 20.7131C26.5731 20.4751 27.6184 20.2564 28.649 20.0719C29.7392 19.8768 30.873 19.7102 31.7464 19.5953C31.6429 18.6364 31.6613 16.8394 32.964 14.8657C34.1303 13.0986 35.8688 12.492 37.5084 12.5928Z" fill="black"/>
<path d="M13.8489 36.8225C14.1225 37.1929 14.433 37.6011 14.7502 38.0039C14.7753 37.9263 14.7997 37.8515 14.8231 37.7795L14.8233 37.779C14.8499 37.6973 14.8754 37.6192 14.8993 37.5449C14.9826 37.2856 15.0187 37.0655 15.029 36.892C15.0341 36.8058 15.0329 36.7281 15.027 36.6607C15.0241 36.6274 15.0196 36.5922 15.0128 36.557C15.0086 36.5354 14.9954 36.4675 14.9604 36.3935C14.8072 36.0696 14.5731 35.729 14.3177 35.381C14.2021 35.2234 14.0765 35.057 13.9462 34.8842L13.8972 34.8192C13.7483 34.6218 13.5924 34.4144 13.431 34.1933C12.7874 33.3113 12.0621 32.2172 11.4509 30.8051C10.6504 28.9557 10.7766 27.4172 11.307 26.4001C11.8383 25.3812 12.7767 24.8569 13.7486 24.9494C13.8089 24.9552 13.867 24.9639 13.9231 24.9753C14.563 25.1057 15.0583 25.6236 15.4211 26.3745C15.7795 27.1165 15.9501 27.9744 15.9932 28.543C16.0178 28.8685 16.3017 29.1124 16.6272 29.0877C16.9527 29.0631 17.1966 28.7792 17.1719 28.4537C17.1205 27.7751 16.9228 26.7657 16.4854 25.8603C16.1492 25.1643 15.635 24.4604 14.8766 24.0694C14.3396 23.8024 13.6926 23.6792 12.9313 23.8079C11.8037 24.0046 10.8311 24.7561 10.2588 25.8535C9.53325 27.245 9.45256 29.1641 10.3661 31.2746C11.0254 32.7978 11.8053 33.9708 12.4761 34.8901C12.6434 35.1193 12.8041 35.3331 12.9534 35.531L13.0022 35.5957C13.1334 35.7696 13.254 35.9295 13.3647 36.0803C13.5853 36.3809 13.7454 36.6179 13.8494 36.8143C13.8492 36.8169 13.8491 36.8196 13.8489 36.8224L13.8489 36.8225Z" fill="black"/>
</svg>
